<svg xmlns="http://www.w3.org/2000/svg" width="256" height="256" viewBox="0 0 100 100"><rect width="100" height="100" rx="20" fill="#36a3c0"></rect><path fill="#fff" d="M15.26 52.55L15.26 52.55Q10.56 53.26 8.13 55.01Q5.70 56.77 5.70 59.09L5.70 59.09Q5.70 61.30 7.38 63.49Q9.05 65.68 10.56 65.68L10.56 65.68Q13.59 65.68 15.69 52.93L15.69 52.93Q15.75 52.77 15.58 52.63Q15.42 52.50 15.26 52.55ZM10.94 72.70L10.94 72.70Q6.46 72.70 2.57 68.51Q-1.32 64.33-1.32 59.09L-1.32 59.09Q-1.32 54.17 3.35 50.53Q8.02 46.88 16.29 46.07L16.29 46.07Q16.61 46.07 16.72 45.59L16.72 45.59Q17.20 41.81 17.69 36.73L17.69 36.73Q17.69 36.30 17.26 36.30L17.26 36.30L5.70 36.30Q4.46 36.30 3.54 35.41Q2.62 34.52 2.62 33.28Q2.62 32.03 3.54 31.12Q4.46 30.20 5.70 30.20L5.70 30.20L21.90 30.20Q23.14 30.20 24.06 31.12Q24.98 32.03 24.98 33.28L24.98 33.28L24.98 36.30Q24.44 40.94 23.85 45.53L23.85 45.53Q23.79 45.75 23.95 45.88Q24.12 46.02 24.33 46.02L24.33 46.02Q28.38 46.29 31.73 47.10L31.73 47.10Q32.22 47.21 32.22 46.78L32.22 46.78Q32.32 41.48 32.32 37.60L32.32 37.60Q32.32 36.35 33.24 35.44Q34.16 34.52 35.40 34.52L35.40 34.52L36.10 34.52Q37.40 34.52 38.29 35.41Q39.18 36.30 39.18 37.60L39.18 37.60Q39.18 44.56 38.97 48.88L38.97 48.88Q38.97 49.42 39.40 49.58L39.40 49.58Q42.42 50.83 44.80 52.12L44.80 52.12Q45.93 52.72 46.26 53.96Q46.58 55.20 45.99 56.33L45.99 56.33L45.77 56.71Q45.23 57.79 44.04 58.12Q42.85 58.44 41.77 57.85L41.77 57.85L38.86 56.39Q38.48 56.23 38.37 56.66L38.37 56.66Q37.56 63.41 35.51 66.78Q33.46 70.16 28.98 72.91L28.98 72.91Q27.90 73.61 26.65 73.26Q25.41 72.91 24.71 71.83L24.71 71.83L24.39 71.35Q23.74 70.27 24.06 69.05Q24.39 67.84 25.47 67.19L25.47 67.19Q28.60 65.24 29.98 62.62Q31.35 60.01 31.84 54.28L31.84 54.28Q31.84 53.74 31.51 53.69L31.51 53.69Q27.79 52.66 23.41 52.28L23.41 52.28Q22.87 52.28 22.82 52.66L22.82 52.66Q21.42 61.09 19.63 65.54Q17.85 70.00 15.94 71.35Q14.02 72.70 10.94 72.70ZM84.92 34.84L84.92 34.84Q84.33 33.76 84.70 32.57Q85.08 31.39 86.22 30.79L86.22 30.79L86.27 30.79Q87.40 30.20 88.65 30.58Q89.89 30.95 90.48 32.09L90.48 32.09Q91.08 33.17 92.26 35.44L92.26 35.44Q92.80 36.57 92.37 37.76Q91.94 38.95 90.81 39.49L90.81 39.49Q89.62 40.03 88.43 39.59Q87.24 39.16 86.65 38.03L86.65 38.03Q86.38 37.54 84.92 34.84ZM94.75 28.96L94.91 28.90Q96.04 28.31 97.29 28.66Q98.53 29.01 99.12 30.14L99.12 30.14Q100.90 33.55 100.96 33.65L100.96 33.65Q101.55 34.79 101.15 35.98Q100.74 37.16 99.61 37.70L99.61 37.70L99.45 37.81Q98.31 38.35 97.10 37.95Q95.88 37.54 95.29 36.41L95.29 36.41Q95.02 35.87 94.42 34.73Q93.83 33.60 93.51 33.06L93.51 33.06Q92.91 31.98 93.26 30.74Q93.61 29.50 94.75 28.96L94.75 28.96ZM61.21 43.32L56.62 43.32Q55.38 43.32 54.49 42.43Q53.60 41.54 53.60 40.30Q53.60 39.05 54.49 38.14Q55.38 37.22 56.62 37.22L56.62 37.22L62.62 37.22Q63.05 37.22 63.16 36.73L63.16 36.73Q63.97 33.17 64.62 29.33L64.62 29.33Q64.89 28.09 65.89 27.31Q66.88 26.53 68.18 26.63L68.18 26.63L68.56 26.69Q69.80 26.80 70.56 27.79Q71.31 28.79 71.10 30.04L71.10 30.04Q70.39 34.14 69.91 36.79L69.91 36.79Q69.80 37.22 70.29 37.22L70.29 37.22L73.58 37.22Q76.33 37.22 77.68 37.22Q79.03 37.22 80.71 37.54Q82.38 37.87 83.03 38.08Q83.68 38.30 84.49 39.32Q85.30 40.35 85.46 41.16Q85.62 41.97 85.89 44.05Q86.16 46.13 86.16 47.86Q86.16 49.58 86.16 53.04L86.16 53.04Q86.16 63.41 83.65 68.32Q81.14 73.24 76.82 73.24L76.82 73.24Q73.53 73.24 68.29 71.67L68.29 71.67Q67.05 71.29 66.48 70.16Q65.91 69.02 66.29 67.73L66.29 67.73L66.40 67.40Q66.78 66.22 67.88 65.65Q68.99 65.08 70.23 65.46L70.23 65.46Q73.80 66.54 75.36 66.54L75.36 66.54Q75.90 66.54 76.39 66.05Q76.87 65.57 77.36 64.46Q77.85 63.35 78.20 61.71Q78.55 60.06 78.76 57.55Q78.98 55.04 78.98 51.96L78.98 51.96Q78.98 49.37 78.98 48.26Q78.98 47.15 78.76 45.91Q78.55 44.67 78.39 44.35Q78.22 44.02 77.52 43.67Q76.82 43.32 76.25 43.32Q75.69 43.32 74.28 43.32L74.28 43.32L68.94 43.32Q68.50 43.32 68.40 43.75L68.40 43.75Q65.05 57.74 59.92 70.81L59.92 70.81Q59.43 72.05 58.27 72.56Q57.11 73.07 55.92 72.64L55.92 72.64L55.54 72.53Q54.36 72.16 53.87 70.99Q53.38 69.83 53.82 68.65L53.82 68.65Q58.30 56.82 61.54 43.75L61.54 43.75Q61.65 43.32 61.21 43.32L61.21 43.32ZM96.10 44.35L96.10 44.35Q99.23 52.39 101.17 58.66L101.17 58.66Q101.55 59.84 100.93 60.92Q100.31 62.00 99.12 62.33L99.12 62.33L98.47 62.49Q97.23 62.81 96.13 62.19Q95.02 61.57 94.59 60.33L94.59 60.33Q92.32 53.26 89.73 46.67L89.73 46.67Q89.29 45.48 89.78 44.32Q90.27 43.16 91.45 42.78L91.45 42.78L92.10 42.56Q93.34 42.13 94.48 42.64Q95.61 43.16 96.10 44.35Z"></path></svg>